<?xml version="1.0" standalone="no"?>
<!DOCTYPE svg PUBLIC "-//W3C//DTD SVG 20010904//EN"
 "http://www.w3.org/TR/2001/REC-SVG-20010904/DTD/svg10.dtd">
<svg version="1.0" xmlns="http://www.w3.org/2000/svg"
 width="709.000000pt" height="472.000000pt" viewBox="0 0 709.000000 472.000000"
 preserveAspectRatio="xMidYMid meet">
<metadata>
Created by potrace 1.12, written by Peter Selinger 2001-2015
</metadata>
<g transform="translate(0.000000,472.000000) scale(0.100000,-0.100000)"
fill="#000000" stroke="none">
<path d="M0 2360 l0 -2360 3545 0 3545 0 0 2360 0 2360 -3545 0 -3545 0 0
-2360z m3416 1965 c18 -20 41 -49 51 -65 9 -17 21 -30 25 -30 4 0 8 29 8 65 0
62 1 65 25 65 30 0 38 -33 33 -146 -3 -77 -4 -79 -29 -82 -23 -3 -34 7 -75 62
-26 37 -51 66 -56 66 -4 0 -8 -30 -8 -66 0 -62 -1 -65 -22 -62 -22 3 -23 8
-26 102 -1 55 0 106 2 113 9 23 38 14 72 -22z m47 -317 c3 -13 19 -77 35 -143
17 -66 38 -149 47 -185 8 -36 20 -78 25 -95 5 -16 25 -95 45 -175 19 -80 40
-159 45 -176 6 -17 10 -36 10 -43 0 -18 53 -81 68 -81 10 0 13 17 11 68 -1 38
1 74 5 80 4 7 35 12 76 12 67 0 70 -1 76 -27 4 -14 4 -89 0 -166 l-6 -140 132
-134 c96 -97 134 -129 140 -119 17 30 41 135 47 206 l6 75 143 3 c119 2 142 0
142 -12 0 -8 -10 -18 -22 -22 -41 -13 -133 -56 -139 -66 -4 -6 -9 -31 -12 -57
-6 -52 -49 -186 -79 -246 -11 -22 -45 -77 -74 -122 -46 -69 -53 -86 -44 -103
5 -11 15 -29 20 -40 12 -23 13 -60 2 -60 -4 0 -31 9 -60 19 l-54 20 -81 -55
c-106 -71 -187 -110 -284 -134 -108 -27 -117 -27 -110 8 19 92 31 111 73 112
64 1 243 99 328 179 69 66 139 164 134 190 -3 18 -69 75 -328 286 -63 51 -155
127 -205 168 -130 109 -125 108 -182 61 -26 -21 -50 -41 -53 -44 -3 -4 -54
-46 -115 -95 -60 -49 -128 -105 -151 -124 -22 -20 -97 -81 -167 -136 -70 -55
-127 -107 -127 -116 0 -70 241 -291 370 -338 19 -7 44 -17 55 -21 42 -17 116
-30 173 -30 85 0 86 -2 76 -167 l-7 -138 -24 55 c-56 130 -48 122 -148 141
-108 19 -235 64 -235 81 0 5 -6 8 -13 8 -12 0 -117 66 -127 80 -17 23 -52 30
-93 19 -23 -7 -47 -16 -54 -21 -18 -14 -23 6 -8 35 32 62 29 82 -18 149 -86
121 -155 285 -160 383 -2 31 1 39 13 36 8 -2 29 -7 45 -10 50 -10 61 -23 76
-91 11 -47 21 -66 33 -68 12 -3 57 37 137 120 66 67 171 175 233 238 l113 115
33 120 c17 66 41 156 51 200 11 44 24 96 29 115 5 19 12 49 15 65 4 17 10 39
15 50 8 19 33 120 67 267 16 68 26 78 36 36z m-167 -192 c-16 -93 -15 -91 -64
-105 -73 -21 -180 -76 -254 -131 -67 -49 -177 -176 -210 -242 -37 -75 -57
-126 -67 -173 -6 -27 -15 -71 -21 -97 -5 -26 -10 -61 -10 -77 l0 -31 -141 0
c-158 0 -163 5 -47 54 71 30 88 52 88 119 0 51 52 196 99 276 17 28 31 55 31
59 1 4 14 23 30 42 35 40 37 57 11 128 -21 56 -15 64 29 42 11 -6 29 -15 40
-20 33 -17 50 -12 114 34 72 52 203 118 266 135 25 7 56 16 70 20 35 11 43 4
36 -33z m406 14 c10 -6 25 -10 34 -10 14 0 162 -68 174 -80 3 -3 17 -11 33
-19 15 -8 27 -18 27 -23 0 -4 7 -8 15 -8 8 0 15 -4 15 -8 0 -5 11 -14 24 -21
19 -11 31 -11 62 0 22 7 43 17 48 21 29 24 48 -9 27 -50 -35 -70 -36 -65 11
-129 37 -50 88 -143 119 -218 11 -25 39 -138 46 -183 l5 -33 -53 7 c-65 8 -76
16 -84 57 -4 18 -15 55 -25 83 -50 138 -110 225 -223 329 -79 72 -137 106
-257 150 -91 34 -91 33 -107 131 l-5 32 49 -9 c26 -6 56 -14 65 -19z m-1682
-820 c20 -68 37 -94 44 -68 2 7 9 33 16 58 17 63 24 75 46 75 14 0 23 -13 33
-45 23 -71 35 -100 44 -100 8 0 9 1 28 71 16 59 33 83 54 75 14 -5 14 -9 -1
-43 -9 -21 -26 -69 -39 -108 -26 -82 -51 -97 -73 -43 -32 80 -43 99 -55 95 -6
-2 -19 -31 -27 -65 -13 -52 -18 -62 -36 -62 -18 0 -28 16 -58 98 -41 113 -44
132 -16 132 15 0 23 -14 40 -70z m2780 44 c0 -25 -1 -26 -49 -19 -38 5 -52 3
-65 -11 -23 -23 -10 -32 49 -36 42 -3 50 -6 50 -23 0 -17 -8 -20 -52 -23 -49
-3 -53 -5 -53 -28 0 -26 4 -27 76 -24 31 1 43 -3 48 -16 11 -29 -7 -35 -90
-32 l-79 3 -3 118 -3 117 86 0 c85 0 85 0 85 -26z m-1372 -231 c-3 -47 -3 -48
-38 -48 -55 -1 -60 3 -60 51 l0 44 51 0 50 0 -3 -47z m132 -4 l0 -50 -42 3
c-41 3 -43 5 -46 36 -5 52 3 62 48 62 l40 0 0 -51z m-130 -134 c0 -39 -3 -45
-24 -51 -13 -3 -35 -4 -47 -2 -21 3 -24 9 -27 51 l-3 47 50 0 51 0 0 -45z
m130 -6 l0 -50 -42 3 -43 3 -3 48 -3 47 45 0 46 0 0 -51z m-56 -895 c19 -7 21
-41 4 -47 -7 -2 -26 -1 -43 3 -75 17 -73 -19 2 -45 67 -23 87 -55 63 -100 -23
-44 -120 -54 -155 -15 -14 16 -14 18 0 30 12 10 19 10 27 2 14 -14 74 -16 82
-3 9 15 -18 37 -62 51 -30 9 -47 22 -53 38 -13 34 -12 40 16 67 24 25 81 34
119 19z m-1147 -403 c7 -1 17 -20 23 -43 6 -24 15 -52 19 -63 26 -61 31 -78
31 -96 0 -10 4 -27 9 -37 5 -9 19 -49 32 -89 13 -39 28 -73 33 -75 5 -2 15 15
22 37 34 112 65 218 86 288 l23 77 67 0 c38 0 68 -2 68 -5 0 -6 -38 -121 -49
-150 -5 -11 -14 -38 -20 -60 -7 -22 -16 -49 -20 -60 -4 -11 -30 -87 -56 -170
-27 -82 -53 -156 -58 -162 -6 -8 -32 -13 -66 -13 l-56 0 -33 98 c-19 53 -48
141 -65 195 -29 89 -51 119 -61 85 -18 -61 -79 -256 -84 -268 -3 -8 -13 -35
-22 -60 l-16 -45 -60 0 -59 0 -26 75 c-14 41 -28 82 -31 90 -3 8 -36 107 -73
220 -37 113 -70 211 -72 218 -4 9 13 12 66 12 69 0 71 -1 77 -27 3 -16 17 -62
30 -103 34 -106 58 -191 69 -242 6 -32 45 -41 45 -10 0 21 34 129 43 138 4 4
7 14 7 23 0 19 38 149 51 173 5 10 9 24 9 32 0 8 5 16 10 18 9 3 71 2 107 -1z
m-1537 -22 c8 -12 45 -61 82 -109 37 -49 78 -107 93 -129 14 -23 34 -52 45
-64 11 -12 25 -31 33 -41 30 -41 36 -9 36 177 l0 182 60 3 61 3 -2 -308 -3
-308 -47 -1 c-26 -1 -54 3 -62 10 -20 15 -127 152 -162 207 -42 65 -124 167
-141 173 -12 5 -13 -25 -11 -190 l3 -195 -60 3 -60 3 -2 303 -1 302 62 0 c51
0 64 -3 76 -21z m3079 -105 c-1 -97 2 -129 12 -135 8 -5 86 -8 174 -6 l160 2
3 133 3 132 34 0 35 0 0 -310 0 -310 -35 0 -34 0 -3 143 -3 142 -153 2 c-84 1
-163 -2 -175 -6 -20 -8 -22 -15 -23 -137 -1 -71 -2 -132 -3 -136 -1 -5 -14 -8
-31 -8 l-30 0 0 310 0 310 35 0 36 0 -2 -126z m-2274 -14 c3 -5 16 -10 29 -10
34 0 104 -51 136 -99 47 -70 51 -188 8 -258 -22 -37 -82 -87 -124 -104 -46
-18 -157 -13 -207 9 -40 18 -93 72 -124 129 -22 39 -16 152 10 203 27 51 100
112 155 127 49 14 109 15 117 3z m1430 0 c3 -5 17 -10 29 -10 28 0 93 -63 104
-100 4 -14 7 -101 7 -195 l0 -170 -53 -3 c-41 -2 -57 1 -66 13 -10 14 -16 14
-60 -6 -39 -17 -60 -20 -102 -15 -70 8 -95 20 -122 60 -25 36 -30 117 -10 160
26 59 122 88 236 72 50 -8 52 -7 52 16 0 29 -8 39 -42 57 -26 13 -106 11 -169
-4 -23 -6 -28 -3 -38 26 -22 63 -21 64 74 97 39 13 152 15 160 2z m355 -80
c15 -41 29 -82 32 -90 5 -13 12 -36 33 -118 4 -13 12 -21 18 -19 13 4 23 28
68 177 18 58 37 111 42 118 10 13 123 17 130 5 4 -7 -16 -66 -54 -160 -26 -66
-32 -79 -40 -95 -5 -10 -9 -27 -9 -37 0 -11 -4 -22 -9 -25 -5 -4 -17 -32 -27
-64 -9 -31 -20 -61 -24 -67 -3 -5 -13 -30 -20 -54 -8 -25 -31 -61 -53 -83 -38
-37 -40 -38 -110 -38 -47 1 -79 6 -91 15 -18 13 -18 18 -6 56 16 47 29 56 60
39 25 -13 57 -5 69 18 9 17 -14 97 -54 188 -9 22 -21 48 -25 59 -4 11 -15 36
-23 55 -8 19 -24 62 -37 95 -13 33 -27 65 -32 72 -19 24 3 34 70 31 l66 -3 26
-75z m1331 59 c49 -17 96 -54 127 -102 24 -37 27 -51 26 -129 0 -77 -3 -90
-27 -125 -37 -54 -66 -77 -121 -98 -56 -22 -135 -16 -192 13 -45 23 -64 42
-94 97 -29 51 -32 173 -7 221 23 45 66 94 83 94 8 0 14 4 14 9 0 25 133 39
191 20z m327 -22 c4 -31 14 -34 33 -10 22 25 74 43 128 43 45 0 55 -4 92 -40
l42 -40 26 22 c14 13 28 25 31 28 15 16 67 30 109 30 62 0 109 -30 138 -90 20
-41 22 -60 23 -212 l0 -168 -34 0 -34 0 -4 163 c-3 182 -10 204 -73 234 -30
14 -40 15 -75 3 -75 -25 -84 -50 -88 -237 l-4 -163 -34 0 -34 0 0 156 c0 180
-9 212 -67 239 -30 15 -42 15 -74 6 -42 -13 -76 -42 -90 -79 -5 -13 -9 -91 -9
-173 l0 -149 -35 0 -35 0 0 229 c0 241 0 242 45 237 13 -2 21 -12 23 -29z
m1054 -2 c51 -35 84 -97 94 -172 l7 -53 -29 -1 c-16 0 -96 -1 -179 -2 l-150
-2 1 -32 c2 -36 36 -84 73 -101 55 -26 201 -5 201 28 0 18 39 11 49 -9 8 -14
5 -23 -12 -38 -55 -48 -80 -58 -157 -58 -106 0 -155 27 -209 115 -17 29 -21
51 -21 121 0 77 3 90 29 131 26 41 43 56 106 95 12 8 46 12 87 10 56 -2 75 -8
110 -32z"/>
<path d="M1524 1126 c-94 -42 -100 -192 -10 -247 50 -31 105 -25 149 15 36 33
37 36 37 102 -1 52 -5 74 -19 92 -11 12 -24 22 -29 22 -6 0 -12 5 -14 11 -6
17 -80 21 -114 5z"/>
<path d="M2912 950 c-30 -28 -29 -73 3 -94 51 -33 133 -9 156 45 20 49 4 63
-72 67 -54 2 -68 -1 -87 -18z"/>
<path d="M4610 1155 c-75 -27 -124 -130 -100 -208 29 -90 77 -127 165 -127 55
0 66 3 93 30 102 97 70 266 -57 309 -40 13 -55 13 -101 -4z"/>
<path d="M5942 1155 c-42 -23 -72 -58 -78 -93 -4 -20 -2 -37 4 -41 5 -3 69 -5
142 -3 l132 3 -5 34 c-3 18 -13 45 -23 60 -31 48 -120 69 -172 40z"/>
</g>
</svg>
